<svg id="logo-museo-historia-natual-bogota" xmlns="http://www.w3.org/2000/svg" width="185" height="70" viewBox="0 0 185 70">
  <g id="Page_1" data-name="Page 1" transform="translate(0 0)">
    <path id="Fill_1" data-name="Fill 1" d="M78.721,69.309H54.992A16.964,16.964,0,0,1,39.409,59.1,16.967,16.967,0,0,1,23.826,69.309H.1V50.286a16.736,16.736,0,0,1,2.95-9.517,16.961,16.961,0,0,1,7.583-6.114,16.965,16.965,0,0,1-7.583-6.114A16.737,16.737,0,0,1,.1,19.024V17.715L0,17.609l.1-.1V0h23.73A16.967,16.967,0,0,1,39.409,10.208,16.966,16.966,0,0,1,54.992,0h23.73V19.024a16.737,16.737,0,0,1-2.95,9.517,16.964,16.964,0,0,1-7.583,6.114,16.962,16.962,0,0,1,7.583,6.114,16.736,16.736,0,0,1,2.95,9.517V69.308ZM68.816,61.55v5h5.735Zm-9.443-8.225V66.546h7.593V59.939Zm-9.25-8.057v20.4a14.169,14.169,0,0,0,4.868.875h2.532V51.713ZM17.066,36.151A14.181,14.181,0,0,0,2.871,50.286V66.546H23.826A14.181,14.181,0,0,0,38.021,52.412V42.484H30.505V36.151ZM70.311,60.405l5.635,4.908V60.405ZM40.8,37.144V52.412a14.128,14.128,0,0,0,7.478,12.447v-21.2Zm20,14.972,7.4,6.448h7.75V52.116ZM51.717,44.21l6.962,6.064H75.946a13.928,13.928,0,0,0-1.4-6.064Zm-9.252-8.059L49.6,42.368H73.5a14.214,14.214,0,0,0-11.752-6.217Zm-4.444.985-4.1,3.506h4.1Zm-5.665-.985v3.405l3.977-3.405Zm2.312-9.523v6.53h3.353V30.184Zm-1.85-.02-4.453,4.708,1.744,1.842h2.709Zm-5.723,6.05-.473.5h.945Zm-5.723-6.046v6.545h2.71l1.742-1.842Zm-1.85.062L15.044,31.41l1.568,1.724c.064,0,.128.007.189.011.088.006.177.012.265.012h2.455ZM8.074,26.49v3.461a14.163,14.163,0,0,0,3.737,2.191l.715-.756ZM14.1,18.93,8.8,24.54l5,5.5L19.2,24.323Zm13.027-.3-5.381,5.691,5.35,5.651,5.372-5.679Zm-20.9,8.632-.373.393.087.112c.092.12.187.243.286.359Zm31.8-6.155L35.007,24.3l3.014,3.2ZM3.015,20.926A13.93,13.93,0,0,0,4.792,26.09l1.433-1.515v-.12Zm43.1-2.736h0l6.127,5.641,1.672-2.81L56.13,22.6l1.793-1.636L59.7,22.512l2.64-1.887,2.043,2.746,6.359-5.411,3.352,4.6,1.717-1.709a14.037,14.037,0,0,0,.133-1.833V2.763H54.992A14.181,14.181,0,0,0,40.8,16.9v6.3l5.318-5ZM8.074,12.566v10.05l4.753-5.029Zm13.3-.038v9.5l4.486-4.746Zm11.447.083L28.4,17.287l4.421,4.689Zm-13.3.58-4.153,4.394,4.153,4.388Zm15.147-.008v8.784l3.353-3.545V16.9c0-.035,0-.07-.005-.1s0-.063,0-.094ZM6.225,13.6,2.871,17.226v.8l3.353,3.688Zm8.006-8.648L8.883,10.734,14.1,16.242l5.394-5.708-5.26-5.577ZM27.074,5.2h0L22.03,10.536l5.1,5.406,5.066-5.358L27.074,5.2Zm-24.2,1.87v7.439l3.353-3.621v-.275ZM35.844,9.41l-1.1,1.169L37.617,13.6A14.027,14.027,0,0,0,35.844,9.41ZM8.074,2.763V8.888l4.887-5.277-.8-.848ZM28.586,3.6l-.242.257L32.818,8.56V5.97A14.213,14.213,0,0,0,28.586,3.6Zm-7.215-.835V8.545L25.8,3.858l-.995-1.045-.15-.011c-.27-.019-.549-.039-.829-.039Zm-18.5,0V4.383L6.225,7.925V2.763Zm13.391,0-.773.836,4.032,4.276V2.763H16.262ZM173.994,68.654c-1.281,0-2.052-.494-2.29-1.469a7.56,7.56,0,0,1-4.29,1.469,3.718,3.718,0,0,1-2.581-.964,2.959,2.959,0,0,1-1.063-2.241,3.654,3.654,0,0,1,1.1-2.756c.728-.7,2.963-1.6,6.643-2.7a2.049,2.049,0,0,0-.449-1.594,2.408,2.408,0,0,0-1.814-.6,6.722,6.722,0,0,0-4.8,2.189V56.64a10.534,10.534,0,0,1,5.643-1.593,7.1,7.1,0,0,1,4.14,1,3.455,3.455,0,0,1,1.38,2.986V65c0,.608.228.916.678.916a3.245,3.245,0,0,0,1.544-.736v2.287A7.711,7.711,0,0,1,173.994,68.654Zm-2.483-6.6a11.46,11.46,0,0,0-2.82,1.3,1.777,1.777,0,0,0-.766,1.467,1.378,1.378,0,0,0,.387.98,1.236,1.236,0,0,0,.937.411,3.4,3.4,0,0,0,2.263-.988Zm-31.349,6.6a4.7,4.7,0,0,1-3.45-1.317,4.926,4.926,0,0,1-1.325-3.644v-8.37h4.1v8.082c0,1.653.692,2.491,2.055,2.491a2.591,2.591,0,0,0,1.981-.906,2.617,2.617,0,0,0,.819-1.336V55.323h4.127V68.4h-4.1V66.534A5.426,5.426,0,0,1,140.162,68.654Zm-10.681,0a5.246,5.246,0,0,1-3.725-1.247,4.812,4.812,0,0,1-1.325-3.659V58.137h-1.862v-.8l5.45-6.124h.511v4.114h4.746v2.813h-4.746v5.391a2.146,2.146,0,0,0,.531,1.531,1.933,1.933,0,0,0,1.469.561,6.072,6.072,0,0,0,2.746-.762v2.978A9.874,9.874,0,0,1,129.481,68.654Zm-11.092,0c-1.283,0-2.053-.494-2.29-1.469a7.563,7.563,0,0,1-4.292,1.469,3.721,3.721,0,0,1-2.581-.964,2.959,2.959,0,0,1-1.062-2.241,3.654,3.654,0,0,1,1.1-2.756c.727-.7,2.962-1.6,6.643-2.7a2.051,2.051,0,0,0-.45-1.594,2.408,2.408,0,0,0-1.813-.6,6.722,6.722,0,0,0-4.8,2.189V56.64a10.53,10.53,0,0,1,5.643-1.593,7.1,7.1,0,0,1,4.139,1A3.456,3.456,0,0,1,120,59.029V65c0,.608.227.916.676.916a3.238,3.238,0,0,0,1.546-.736v2.287A7.715,7.715,0,0,1,118.389,68.654Zm-2.483-6.6a11.51,11.51,0,0,0-2.822,1.3,1.777,1.777,0,0,0-.766,1.467,1.384,1.384,0,0,0,.387.98,1.243,1.243,0,0,0,.938.411,3.4,3.4,0,0,0,2.263-.988ZM90.351,68.406h-4.8V49.046h4.4l10.292,11.835V49.046h4.8V68.4h-4.056L90.351,56V68.4Zm93.357,0h-4.1V49.046h4.1V68.4Zm-27.637,0h-4.1V55.323h4.1v3.742h.056c1.18-2.666,2.577-4.018,4.153-4.018A4.869,4.869,0,0,1,163,56.238l-1.131,3.645a5.012,5.012,0,0,0-2.428-.97,2.815,2.815,0,0,0-2.394,1.768,8.971,8.971,0,0,0-.973,2.062V68.4ZM16.284,61.787H7.11V54.5A7.316,7.316,0,0,1,14.434,47.2v1.843A5.468,5.468,0,0,0,8.96,54.5v5.449h7.324A5.467,5.467,0,0,0,21.757,54.5h1.851A7.316,7.316,0,0,1,16.284,61.787ZM26.729,43.75a2.3,2.3,0,1,1,2.312-2.3A2.31,2.31,0,0,1,26.729,43.75Zm154.5-1.243c-1.216,0-1.947-.479-2.173-1.424a7.089,7.089,0,0,1-4.072,1.424,3.489,3.489,0,0,1-2.45-.935,2.9,2.9,0,0,1-1.008-2.174,3.581,3.581,0,0,1,1.041-2.671c.692-.674,2.813-1.554,6.305-2.617a2.01,2.01,0,0,0-.439-1.558,2.27,2.27,0,0,0-1.709-.565,6.32,6.32,0,0,0-4.556,2.123V30.859a9.846,9.846,0,0,1,5.355-1.545,6.627,6.627,0,0,1,3.928.966,3.379,3.379,0,0,1,1.31,2.9v5.784c0,.589.216.888.641.888a3.013,3.013,0,0,0,1.467-.713v2.217A7.214,7.214,0,0,1,181.224,42.507Zm-2.356-6.395h0a10.789,10.789,0,0,0-2.678,1.259,1.732,1.732,0,0,0-.727,1.423,1.357,1.357,0,0,0,.367.948,1.163,1.163,0,0,0,.89.4,3.2,3.2,0,0,0,2.148-.958V36.112ZM143.4,42.507a7.094,7.094,0,0,1-5.034-1.837,6.257,6.257,0,0,1-1.958-4.766,6.16,6.16,0,0,1,2-4.786,7.205,7.205,0,0,1,5-1.8,7.311,7.311,0,0,1,4.929,1.749,6.115,6.115,0,0,1,2.023,4.867,6.008,6.008,0,0,1-2.055,4.855A7.419,7.419,0,0,1,143.4,42.507Zm0-10.814a2.409,2.409,0,0,0-2.089,1.09,5.49,5.49,0,0,0-.752,3.121,5.786,5.786,0,0,0,.71,3.179,2.4,2.4,0,0,0,2.131,1.06,2.334,2.334,0,0,0,2.092-1.08,6.071,6.071,0,0,0,.7-3.239,5.6,5.6,0,0,0-.7-3.1A2.365,2.365,0,0,0,143.4,31.692ZM131.417,42.507a4.916,4.916,0,0,1-3.536-1.209,4.719,4.719,0,0,1-1.258-3.547v-5.44h-1.767v-.779l5.172-5.937h.485v3.989h4.5v2.727h-4.5v5.225a2.1,2.1,0,0,0,.5,1.485,1.814,1.814,0,0,0,1.394.545,5.657,5.657,0,0,0,2.6-.739v2.888A9.191,9.191,0,0,1,131.417,42.507Zm-12.649,0a10.18,10.18,0,0,1-4.425-.928V38.772a10.2,10.2,0,0,0,3.993,1.075c1.251,0,1.885-.316,1.885-.938a.94.94,0,0,0-.349-.684,10.941,10.941,0,0,0-2.338-1.12,6.433,6.433,0,0,1-2.72-1.752,3.5,3.5,0,0,1,.673-4.949,5.929,5.929,0,0,1,3.712-1.09,8.451,8.451,0,0,1,3.993.942v2.833a7.906,7.906,0,0,0-4.123-1.4c-.93,0-1.4.33-1.4.98a.679.679,0,0,0,.3.5,13.45,13.45,0,0,0,2.257,1.05A6.63,6.63,0,0,1,123,36.078a3.69,3.69,0,0,1,.813,2.3A3.744,3.744,0,0,1,122.5,41.43,5.76,5.76,0,0,1,118.768,42.507Zm-28.661-.241H85.549V23.5h4.557v7.535h9.112V23.5h4.558V42.264H99.218V34.674H90.106v7.591Zm78.835,0h-3.889V29.583h3.889v12.68Zm-11.993,0H153.06V29.583h3.889V33.21H157c1.12-2.585,2.447-3.9,3.941-3.9a4.58,4.58,0,0,1,2.579,1.156L162.448,34a4.7,4.7,0,0,0-2.305-.941,2.673,2.673,0,0,0-2.271,1.716,8.749,8.749,0,0,0-.923,2v5.488Zm-45.554,0h-3.888V29.583H111.4v12.68Zm55.583-14.6a2.02,2.02,0,0,1-1.5-.652,2.233,2.233,0,0,1,0-3.109,2.1,2.1,0,0,1,3.024,0,2.241,2.241,0,0,1,0,3.109A2.037,2.037,0,0,1,166.978,27.662Zm-57.546,0a2.024,2.024,0,0,1-1.506-.652,2.239,2.239,0,0,1,0-3.109,2.1,2.1,0,0,1,3.024,0,2.237,2.237,0,0,1,0,3.109A2.036,2.036,0,0,1,109.432,27.662ZM55.986,20.231h0l-1.123-.8,2.93-4.925,3.448,4.637-1.425,1.02-1.922-1.674-1.907,1.742ZM178.7,17.855a6.365,6.365,0,0,1-4.385-1.466,4.972,4.972,0,0,1-1.642-3.882,5.273,5.273,0,0,1,1.542-3.9,5.385,5.385,0,0,1,3.934-1.528,5.23,5.23,0,0,1,3.939,1.608A5.677,5.677,0,0,1,183.522,13h-7.47a2.97,2.97,0,0,0,1,2.169,3.655,3.655,0,0,0,2.423.76,6.612,6.612,0,0,0,3.855-1.481v2.052A7.717,7.717,0,0,1,178.7,17.855Zm-.32-8.83c-1.337,0-2.1.76-2.259,2.259h4.517C180.459,9.785,179.7,9.025,178.376,9.025Zm-14.034,8.83a4.517,4.517,0,0,1-3.477-1.538,5.541,5.541,0,0,1-1.394-3.853,5.452,5.452,0,0,1,1.415-3.877,4.785,4.785,0,0,1,3.631-1.505,6.091,6.091,0,0,1,2.71.659V2.333H170.5V17.657h-3.272v-.833A4.443,4.443,0,0,1,164.342,17.855ZM165.4,9.266a2.338,2.338,0,0,0-1.922.855,3.757,3.757,0,0,0-.688,2.4,3.593,3.593,0,0,0,.683,2.287,2.213,2.213,0,0,0,1.819.861,2.874,2.874,0,0,0,1.938-.856V9.869A3.242,3.242,0,0,0,165.4,9.266Zm-19.676,8.589a6.079,6.079,0,0,1-4.237-1.5,5.043,5.043,0,0,1-1.646-3.892,4.962,4.962,0,0,1,1.68-3.91,6.178,6.178,0,0,1,4.2-1.472,6.266,6.266,0,0,1,4.148,1.429,4.92,4.92,0,0,1,1.7,3.974,4.838,4.838,0,0,1-1.729,3.964A6.359,6.359,0,0,1,145.722,17.855Zm0-8.83a2.047,2.047,0,0,0-1.757.889,4.383,4.383,0,0,0-.633,2.55c0,2.3.8,3.46,2.39,3.46,1.557,0,2.347-1.186,2.347-3.526C148.069,10.16,147.28,9.025,145.722,9.025Zm-12.305,8.83a6.365,6.365,0,0,1-4.385-1.466,4.972,4.972,0,0,1-1.642-3.882,5.274,5.274,0,0,1,1.542-3.9,5.385,5.385,0,0,1,3.934-1.528A5.23,5.23,0,0,1,136.8,8.69,5.68,5.68,0,0,1,138.243,13h-7.471a2.979,2.979,0,0,0,1,2.169,3.659,3.659,0,0,0,2.424.76,6.615,6.615,0,0,0,3.855-1.481v2.052A7.716,7.716,0,0,1,133.417,17.855Zm-.32-8.83c-1.337,0-2.1.76-2.259,2.259h4.517C135.18,9.785,134.421,9.025,133.1,9.025Zm-11.391,8.83a8.8,8.8,0,0,1-3.724-.757V14.805a8.8,8.8,0,0,0,3.361.878c1.052,0,1.586-.257,1.586-.765a.755.755,0,0,0-.293-.559,9.259,9.259,0,0,0-1.966-.914,5.443,5.443,0,0,1-2.29-1.432,2.733,2.733,0,0,1-.617-1.735,2.769,2.769,0,0,1,1.184-2.306,5.1,5.1,0,0,1,3.123-.89,7.3,7.3,0,0,1,3.361.768v2.314a6.79,6.79,0,0,0-3.47-1.14c-.782,0-1.179.269-1.179.8a.556.556,0,0,0,.248.412,11.6,11.6,0,0,0,1.9.857,5.588,5.588,0,0,1,2.335,1.513,2.954,2.954,0,0,1,.683,1.877,3.019,3.019,0,0,1-1.1,2.493A4.957,4.957,0,0,1,121.707,17.855Zm-12.768,0a3.771,3.771,0,0,1-2.755-1.042,3.882,3.882,0,0,1-1.057-2.885V7.3H108.4v6.4c0,1.309.552,1.972,1.641,1.972a2.076,2.076,0,0,0,1.582-.718,2.072,2.072,0,0,0,.655-1.058V7.3h3.294V17.657H112.3V16.176A4.344,4.344,0,0,1,108.938,17.855Zm-19.578-.2H85.528V2.333h3.328l4.951,5.682,4.946-5.682h3.333V17.656H98.252V8.091L94.094,12.9h-.576L89.361,8.091v9.566ZM65.887,10.131a2.3,2.3,0,1,1,2.313-2.3A2.31,2.31,0,0,1,65.887,10.131Z" transform="translate(0)"/>
  </g>
</svg>
